<svg xmlns="http://www.w3.org/2000/svg" version="1.1" xmlns:xlink="http://www.w3.org/1999/xlink" xmlns:svgjs="http://svgjs.com/svgjs" width="24" height="24" x="0" y="0" viewBox="0 0 24 24" style="enable-background:new 0 0 512 512" xml:space="preserve" class=""><g><path d="M28.987 3.775c-.133-.557-.745-.936-1.3-.739 0 0-24.041 8.485-24.045 8.488-.369.137-.64.489-.66.892-.018.387.221.79.574.954l9.312 4.347 4.545-4.545c.9-.9 2.337.492 1.414 1.414l-4.545 4.545 4.349 9.317c.177.34.523.556.903.573.413.019.795-.297.943-.667l8.485-24.042a.937.937 0 0 0 .025-.537z" fill="#9d9999" data-original="#000000" class=""></path></g></svg>